<mxfile host="app.diagrams.net" modified="2021-01-06T23:37:45.061Z" agent="5.0 (Windows NT 10.0; Win64; x64) AppleWebKit/537.36 (KHTML, like Gecko) Chrome/87.0.4280.88 Safari/537.36" etag="1Ei943yTKX06t6HcJwDQ" version="14.1.2" type="github">
  <diagram id="uXHuaYN9m7DcU4bXTOWc" name="Page-1">
    <mxGraphModel dx="1635" dy="877" grid="1" gridSize="10" guides="1" tooltips="1" connect="1" arrows="1" fold="1" page="1" pageScale="1" pageWidth="827" pageHeight="1169" math="0" shadow="0">
      <root>
        <mxCell id="0" />
        <mxCell id="1" parent="0" />
        <mxCell id="UVJEUTRH-WBieImJuv0P-32" style="edgeStyle=orthogonalEdgeStyle;rounded=0;orthogonalLoop=1;jettySize=auto;html=1;exitX=0.5;exitY=1;exitDx=0;exitDy=0;entryX=0.5;entryY=0;entryDx=0;entryDy=0;" edge="1" parent="1" source="UVJEUTRH-WBieImJuv0P-1" target="UVJEUTRH-WBieImJuv0P-2">
          <mxGeometry relative="1" as="geometry" />
        </mxCell>
        <mxCell id="UVJEUTRH-WBieImJuv0P-1" value="start game" style="rounded=1;whiteSpace=wrap;html=1;" vertex="1" parent="1">
          <mxGeometry x="294" y="20" width="120" height="60" as="geometry" />
        </mxCell>
        <mxCell id="UVJEUTRH-WBieImJuv0P-31" style="edgeStyle=orthogonalEdgeStyle;rounded=0;orthogonalLoop=1;jettySize=auto;html=1;exitX=0.5;exitY=1;exitDx=0;exitDy=0;" edge="1" parent="1" source="UVJEUTRH-WBieImJuv0P-2" target="UVJEUTRH-WBieImJuv0P-3">
          <mxGeometry relative="1" as="geometry" />
        </mxCell>
        <mxCell id="UVJEUTRH-WBieImJuv0P-2" value="generate a random word" style="rounded=1;whiteSpace=wrap;html=1;" vertex="1" parent="1">
          <mxGeometry x="294" y="100" width="120" height="60" as="geometry" />
        </mxCell>
        <mxCell id="UVJEUTRH-WBieImJuv0P-30" style="edgeStyle=orthogonalEdgeStyle;rounded=0;orthogonalLoop=1;jettySize=auto;html=1;exitX=0.5;exitY=1;exitDx=0;exitDy=0;entryX=0.5;entryY=0;entryDx=0;entryDy=0;" edge="1" parent="1" source="UVJEUTRH-WBieImJuv0P-3" target="UVJEUTRH-WBieImJuv0P-11">
          <mxGeometry relative="1" as="geometry" />
        </mxCell>
        <mxCell id="UVJEUTRH-WBieImJuv0P-3" value="generate as many blanks as letters" style="rounded=1;whiteSpace=wrap;html=1;" vertex="1" parent="1">
          <mxGeometry x="294" y="180" width="120" height="60" as="geometry" />
        </mxCell>
        <mxCell id="UVJEUTRH-WBieImJuv0P-34" style="edgeStyle=orthogonalEdgeStyle;rounded=0;orthogonalLoop=1;jettySize=auto;html=1;exitX=0.5;exitY=1;exitDx=0;exitDy=0;entryX=0.5;entryY=0;entryDx=0;entryDy=0;" edge="1" parent="1" source="UVJEUTRH-WBieImJuv0P-4" target="UVJEUTRH-WBieImJuv0P-15">
          <mxGeometry relative="1" as="geometry" />
        </mxCell>
        <mxCell id="UVJEUTRH-WBieImJuv0P-4" value="Add a part of the hanging man and lose a life" style="rounded=1;whiteSpace=wrap;html=1;" vertex="1" parent="1">
          <mxGeometry x="370" y="510" width="120" height="60" as="geometry" />
        </mxCell>
        <mxCell id="UVJEUTRH-WBieImJuv0P-6" style="edgeStyle=orthogonalEdgeStyle;rounded=0;orthogonalLoop=1;jettySize=auto;html=1;entryX=0.5;entryY=0;entryDx=0;entryDy=0;exitX=0.5;exitY=1;exitDx=0;exitDy=0;" edge="1" parent="1" source="UVJEUTRH-WBieImJuv0P-5" target="UVJEUTRH-WBieImJuv0P-4">
          <mxGeometry relative="1" as="geometry">
            <mxPoint x="490" y="490" as="targetPoint" />
          </mxGeometry>
        </mxCell>
        <mxCell id="UVJEUTRH-WBieImJuv0P-8" style="edgeStyle=orthogonalEdgeStyle;rounded=0;orthogonalLoop=1;jettySize=auto;html=1;exitX=0.5;exitY=1;exitDx=0;exitDy=0;entryX=0.5;entryY=0;entryDx=0;entryDy=0;" edge="1" parent="1" source="UVJEUTRH-WBieImJuv0P-5" target="UVJEUTRH-WBieImJuv0P-9">
          <mxGeometry relative="1" as="geometry">
            <mxPoint x="385" y="570" as="targetPoint" />
          </mxGeometry>
        </mxCell>
        <mxCell id="UVJEUTRH-WBieImJuv0P-5" value="is the letter in the word" style="rhombus;whiteSpace=wrap;html=1;" vertex="1" parent="1">
          <mxGeometry x="294" y="360" width="130" height="80" as="geometry" />
        </mxCell>
        <mxCell id="UVJEUTRH-WBieImJuv0P-7" value="NO" style="text;html=1;strokeColor=none;fillColor=none;align=center;verticalAlign=middle;whiteSpace=wrap;rounded=0;" vertex="1" parent="1">
          <mxGeometry x="384" y="460" width="40" height="20" as="geometry" />
        </mxCell>
        <mxCell id="UVJEUTRH-WBieImJuv0P-33" style="edgeStyle=orthogonalEdgeStyle;rounded=0;orthogonalLoop=1;jettySize=auto;html=1;exitX=0.5;exitY=1;exitDx=0;exitDy=0;entryX=0.5;entryY=0;entryDx=0;entryDy=0;" edge="1" parent="1" source="UVJEUTRH-WBieImJuv0P-9" target="UVJEUTRH-WBieImJuv0P-18">
          <mxGeometry relative="1" as="geometry" />
        </mxCell>
        <mxCell id="UVJEUTRH-WBieImJuv0P-9" value="complete the letter in the word" style="rounded=1;whiteSpace=wrap;html=1;" vertex="1" parent="1">
          <mxGeometry x="195" y="510" width="120" height="60" as="geometry" />
        </mxCell>
        <mxCell id="UVJEUTRH-WBieImJuv0P-10" value="YES" style="text;html=1;strokeColor=none;fillColor=none;align=center;verticalAlign=middle;whiteSpace=wrap;rounded=0;" vertex="1" parent="1">
          <mxGeometry x="270" y="460" width="40" height="20" as="geometry" />
        </mxCell>
        <mxCell id="UVJEUTRH-WBieImJuv0P-29" style="edgeStyle=orthogonalEdgeStyle;rounded=0;orthogonalLoop=1;jettySize=auto;html=1;exitX=0.5;exitY=1;exitDx=0;exitDy=0;entryX=0.5;entryY=0;entryDx=0;entryDy=0;" edge="1" parent="1" source="UVJEUTRH-WBieImJuv0P-11" target="UVJEUTRH-WBieImJuv0P-5">
          <mxGeometry relative="1" as="geometry" />
        </mxCell>
        <mxCell id="UVJEUTRH-WBieImJuv0P-11" value="Draw the stink and as k for a letter to the user" style="rounded=1;whiteSpace=wrap;html=1;" vertex="1" parent="1">
          <mxGeometry x="294" y="260" width="120" height="60" as="geometry" />
        </mxCell>
        <mxCell id="UVJEUTRH-WBieImJuv0P-21" style="edgeStyle=orthogonalEdgeStyle;rounded=0;orthogonalLoop=1;jettySize=auto;html=1;exitX=0.5;exitY=1;exitDx=0;exitDy=0;entryX=0.5;entryY=0;entryDx=0;entryDy=0;" edge="1" parent="1" source="UVJEUTRH-WBieImJuv0P-15" target="UVJEUTRH-WBieImJuv0P-16">
          <mxGeometry relative="1" as="geometry" />
        </mxCell>
        <mxCell id="UVJEUTRH-WBieImJuv0P-22" style="edgeStyle=orthogonalEdgeStyle;rounded=0;orthogonalLoop=1;jettySize=auto;html=1;exitX=1;exitY=0.5;exitDx=0;exitDy=0;entryX=1;entryY=0.5;entryDx=0;entryDy=0;" edge="1" parent="1" source="UVJEUTRH-WBieImJuv0P-15" target="UVJEUTRH-WBieImJuv0P-11">
          <mxGeometry relative="1" as="geometry" />
        </mxCell>
        <mxCell id="UVJEUTRH-WBieImJuv0P-15" value="fails = number of letters?" style="rhombus;whiteSpace=wrap;html=1;" vertex="1" parent="1">
          <mxGeometry x="365" y="650" width="130" height="80" as="geometry" />
        </mxCell>
        <mxCell id="UVJEUTRH-WBieImJuv0P-16" value="game over" style="rounded=1;whiteSpace=wrap;html=1;" vertex="1" parent="1">
          <mxGeometry x="375" y="760" width="120" height="60" as="geometry" />
        </mxCell>
        <mxCell id="UVJEUTRH-WBieImJuv0P-20" style="edgeStyle=orthogonalEdgeStyle;rounded=0;orthogonalLoop=1;jettySize=auto;html=1;exitX=0.5;exitY=1;exitDx=0;exitDy=0;entryX=0.5;entryY=0;entryDx=0;entryDy=0;" edge="1" parent="1" source="UVJEUTRH-WBieImJuv0P-18" target="UVJEUTRH-WBieImJuv0P-19">
          <mxGeometry relative="1" as="geometry" />
        </mxCell>
        <mxCell id="UVJEUTRH-WBieImJuv0P-23" style="edgeStyle=orthogonalEdgeStyle;rounded=0;orthogonalLoop=1;jettySize=auto;html=1;exitX=0;exitY=0.5;exitDx=0;exitDy=0;entryX=0;entryY=0.5;entryDx=0;entryDy=0;" edge="1" parent="1" source="UVJEUTRH-WBieImJuv0P-18" target="UVJEUTRH-WBieImJuv0P-11">
          <mxGeometry relative="1" as="geometry" />
        </mxCell>
        <mxCell id="UVJEUTRH-WBieImJuv0P-18" value="are all the blank completed?" style="rhombus;whiteSpace=wrap;html=1;" vertex="1" parent="1">
          <mxGeometry x="190" y="650" width="130" height="80" as="geometry" />
        </mxCell>
        <mxCell id="UVJEUTRH-WBieImJuv0P-19" value="Win game" style="rounded=1;whiteSpace=wrap;html=1;" vertex="1" parent="1">
          <mxGeometry x="195" y="760" width="120" height="60" as="geometry" />
        </mxCell>
        <mxCell id="UVJEUTRH-WBieImJuv0P-24" value="YES" style="text;html=1;strokeColor=none;fillColor=none;align=center;verticalAlign=middle;whiteSpace=wrap;rounded=0;" vertex="1" parent="1">
          <mxGeometry x="260" y="730" width="40" height="20" as="geometry" />
        </mxCell>
        <mxCell id="UVJEUTRH-WBieImJuv0P-25" value="YES" style="text;html=1;strokeColor=none;fillColor=none;align=center;verticalAlign=middle;whiteSpace=wrap;rounded=0;" vertex="1" parent="1">
          <mxGeometry x="455" y="730" width="40" height="20" as="geometry" />
        </mxCell>
        <mxCell id="UVJEUTRH-WBieImJuv0P-26" value="NO" style="text;html=1;strokeColor=none;fillColor=none;align=center;verticalAlign=middle;whiteSpace=wrap;rounded=0;" vertex="1" parent="1">
          <mxGeometry x="530" y="660" width="40" height="20" as="geometry" />
        </mxCell>
        <mxCell id="UVJEUTRH-WBieImJuv0P-27" value="NO" style="text;html=1;strokeColor=none;fillColor=none;align=center;verticalAlign=middle;whiteSpace=wrap;rounded=0;" vertex="1" parent="1">
          <mxGeometry x="120" y="580" width="40" height="20" as="geometry" />
        </mxCell>
      </root>
    </mxGraphModel>
  </diagram>
</mxfile>
